<svg xmlns="http://www.w3.org/2000/svg" width="38" height="38" viewBox="0 0 38 38">
  <g fill="none" fill-rule="evenodd" transform="translate(1 1)">
    <circle cx="18" cy="18" r="18" stroke="#2489E8" stroke-width="2"/>
    <path fill="#2489E8" d="M25.1999968,18.8000032 L18.8000032,18.8000032 L18.8000032,25.1999968 C18.8000032,25.6799669 18.4800019,26 18,26 C17.5199981,26 17.1999968,25.6799987 17.1999968,25.1999968 L17.1999968,18.8000032 L10.8000032,18.8000032 C10.3200331,18.8000032 10,18.4800019 10,18 C10,17.5199981 10.3200013,17.1999968 10.8000032,17.1999968 L17.1999968,17.1999968 L17.1999968,10.8000032 C17.1999968,10.3200331 17.5199981,10 18,10 C18.4800019,10 18.8000032,10.3200013 18.8000032,10.8000032 L18.8000032,17.1999968 L25.1999968,17.1999968 C25.6799669,17.1999968 26,17.5199981 26,18 C26,18.4800019 25.6799987,18.8000032 25.1999968,18.8000032 L25.1999968,18.8000032 Z" transform="matrix(1 0 0 -1 0 36)"/>
  </g>
</svg>
