<svg xmlns="http://www.w3.org/2000/svg" width="24" height="20" viewBox="0 0 24 20">
  <path fill="#2489E8" fill-rule="evenodd" d="M50.3096175,75.5937894 L27.6903488,75.5937894 C27.3090531,75.5937894 27,75.9086598 27,76.2968261 C27,76.6851639 27.3090531,77 27.6903488,77 L50.3096175,77 C50.6909469,77 51,76.6851639 51,76.2968261 C51,75.9086598 50.6909469,75.5937894 50.3096175,75.5937894 Z M33.6366554,75.1970102 C33.8455324,75.1970102 34.0424476,75.1498277 34.2222456,75.0568009 C34.2342074,75.0506586 34.2459334,75.0442074 34.2575246,75.0372416 C34.2756863,75.0265354 36.0911541,73.9477544 37.2724432,73.2288987 C37.8121067,72.9008858 38.2701603,72.4678018 38.6338334,71.941691 L44.6474969,63.2395877 C44.6484403,63.2382494 44.6494849,63.2369111 44.6503947,63.2355729 C44.651574,63.2339601 44.6525175,63.2322444 44.6536968,63.2306316 L45.5942667,61.8695789 C46.1985578,60.9954842 45.9919047,59.7836313 45.1334501,59.1680967 L42.5191684,57.294213 C42.2581648,57.107233 41.9033198,57 41.5453075,57 C41.0648803,57 40.6557859,57.1931223 40.4225809,57.5299884 C40.3248983,57.6701976 34.5764504,65.9222998 32.9290546,68.34429 C32.5694586,68.8733518 32.3553251,69.4926267 32.3099039,70.1345491 L32.0660175,73.5353277 C32.0249429,73.9166654 32.1530187,74.3003021 32.4277026,74.6180893 C32.7412371,74.9805539 33.1932256,75.1970102 33.6366554,75.1970102 Z M41.5035928,58.4083724 C41.5150155,58.4071371 41.528999,58.4060733 41.5453075,58.4060733 C41.6350717,58.4060733 41.7069438,58.432873 41.7245664,58.4441282 L44.3385786,60.3177717 C44.5744455,60.4869425 44.6311883,60.8198966 44.4652054,61.0600985 L43.9184659,61.8512207 L40.7084516,59.5506697 C41.1109417,58.9721263 41.3967113,58.5618271 41.5035928,58.4083724 Z M39.9101768,60.6979084 L43.1237291,63.0011358 L37.5047721,71.1323478 C37.4933157,71.1489904 37.481455,71.1651869 37.4697627,71.1815549 L36.5773433,69.9415297 C36.5740749,69.9368286 36.5706379,69.9322991 36.5672347,69.9277353 C36.3975453,69.7037298 36.1682826,69.5392601 35.902528,69.4516208 L34.2286814,68.9036516 C35.4242235,67.1534719 38.1432639,63.2385239 39.9101768,60.6979084 Z M33.4419978,73.6527178 L33.6870635,70.2362918 C33.6878385,70.2255513 33.6889168,70.2149824 33.6899613,70.204242 L35.4751371,70.7886875 L36.423895,72.1069842 C35.3731415,72.7448575 33.9230653,73.6078344 33.6190328,73.7886378 C33.560841,73.7760443 33.468954,73.7094398 33.4415934,73.6590317 C33.4417282,73.6569042 33.441863,73.6548796 33.4419978,73.6527178 Z" transform="translate(-27 -57)"/>
</svg>
