<svg xmlns="http://www.w3.org/2000/svg" width="24" height="20" viewBox="0 0 24 20">
  <path fill="#505050" fill-rule="evenodd" d="M23.3096175,18.5937894 L0.69034883,18.5937894 C0.309053078,18.5937894 0,18.9086598 0,19.2968261 C0,19.6851639 0.309053078,20 0.69034883,20 L23.3096175,20 C23.6909469,20 24,19.6851639 24,19.2968261 C24,18.9086598 23.6909469,18.5937894 23.3096175,18.5937894 Z M6.63665541,18.1970102 C6.84553243,18.1970102 7.04244762,18.1498277 7.22224562,18.0568009 C7.23420744,18.0506586 7.2459334,18.0442074 7.25752458,18.0372416 C7.27568633,18.0265354 9.09115415,16.9477544 10.2724432,16.2288987 C10.8121067,15.9008858 11.2701603,15.4678018 11.6338334,14.941691 L17.6474969,6.23958768 C17.6484403,6.23824941 17.6494849,6.23691114 17.6503947,6.23557287 C17.651574,6.23396009 17.6525175,6.23224436 17.6536968,6.23063158 L18.5942667,4.86957894 C19.1985578,3.9954842 18.9919047,2.78363127 18.1334501,2.16809673 L15.5191684,0.294213021 C15.2581648,0.107232994 14.9033198,0 14.5453075,0 C14.0648803,0 13.6557859,0.193122333 13.4225809,0.52998835 C13.3248983,0.670197635 7.57645037,8.92229983 5.92905459,11.34429 C5.5694586,11.8733518 5.35532512,12.4926267 5.30990388,13.1345491 L5.06601747,16.5353277 C5.02494293,16.9166654 5.15301868,17.3003021 5.42770257,17.6180893 C5.74123712,17.9805539 6.19322556,18.1970102 6.63665541,18.1970102 Z M14.5035928,1.40837241 C14.5150155,1.40713708 14.528999,1.40607333 14.5453075,1.40607333 C14.6350717,1.40607333 14.7069438,1.432873 14.7245664,1.44412818 L17.3385786,3.31777168 C17.5744455,3.48694245 17.6311883,3.81989661 17.4652054,4.06009852 L16.9184659,4.85122065 L13.7084516,2.55066973 C14.1109417,1.97212628 14.3967113,1.56182711 14.5035928,1.40837241 Z M12.9101768,3.69790836 L16.1237291,6.00113581 L10.5047721,14.1323478 C10.4933157,14.1489904 10.481455,14.1651869 10.4697627,14.1815549 L9.5773433,12.9415297 C9.57407485,12.9368286 9.57063794,12.9322991 9.56723471,12.9277353 C9.3975453,12.7037298 9.16828264,12.5392601 8.90252799,12.4516208 L7.22868142,11.9036516 C8.42422353,10.1534719 11.1432639,6.23852392 12.9101768,3.69790836 Z M6.44199779,16.6527178 L6.68706354,13.2362918 C6.68783853,13.2255513 6.68891678,13.2149824 6.68996133,13.204242 L8.4751371,13.7886875 L9.42389501,15.1069842 C8.37314149,15.7448575 6.92306526,16.6078344 6.61903278,16.7886378 C6.56084103,16.7760443 6.46895401,16.7094398 6.44159345,16.6590317 C6.44172823,16.6569042 6.44186301,16.6548796 6.44199779,16.6527178 Z"/>
</svg>
