<svg xmlns="http://www.w3.org/2000/svg" width="36" height="24" viewBox="0 0 36 24">
  <path fill="#B9B9B9" fill-rule="evenodd" d="M550.075568,606.097351 L581.902649,606.097351 C583.048973,606.097351 583.978486,607.026595 583.978486,608.172919 C583.978486,609.319459 583.048973,610.248757 581.902649,610.248757 L550.075568,610.248757 C548.929243,610.248757 548,609.319459 548,608.172919 C548,607.026595 548.929243,606.097351 550.075568,606.097351 Z M550.075568,615.783784 L581.902649,615.783784 C583.048973,615.783784 583.978486,616.713081 583.978486,617.859622 C583.978486,619.005946 583.048973,619.935189 581.902649,619.935189 L550.075568,619.935189 C548.929243,619.935189 548,619.005946 548,617.859622 C548,616.713081 548.929243,615.783784 550.075568,615.783784 Z M550.075568,625.470216 L581.902649,625.470216 C583.048973,625.470216 583.978486,626.39973 583.978486,627.546054 C583.978486,628.692378 583.048973,629.621622 581.902649,629.621622 L550.075568,629.621622 C548.929243,629.621622 548,628.692378 548,627.546054 C548,626.39973 548.929243,625.470216 550.075568,625.470216 Z" transform="translate(-548 -606)"/>
</svg>
