<svg xmlns="http://www.w3.org/2000/svg" xmlns:xlink="http://www.w3.org/1999/xlink" width="36" height="36" viewBox="0 0 36 36">
  <defs>
    <polygon id="icon_top-a" points=".003 .029 .003 35.748 35.977 35.748 35.977 .029"/>
  </defs>
  <g fill="none" fill-rule="evenodd">
    <mask id="icon_top-b" fill="#fff">
      <use xlink:href="#icon_top-a"/>
    </mask>
    <path fill="#B9B9B9" d="M16.2825067,7.42800808 L0.887093333,21.8214409 C-0.000426666667,22.6499328 -0.38352,23.638519 0.5048,24.4680081 C1.39210667,25.2974971 2.44874667,24.9401143 3.33584,24.1106253 L16.2739733,12.0155508 L16.2739733,33.7920695 C16.2739733,34.8723947 16.77792,35.7482019 17.93376,35.7482019 C19.0893867,35.7482019 19.7377067,34.8723947 19.7377067,33.7918701 L19.7377067,12.0157502 L32.6577067,24.0940724 C33.5452267,24.923362 34.57584,25.3050756 35.4639467,24.4755865 C36.3514667,23.6449507 35.9939733,22.6341776 35.1066667,21.8046885 L19.70832,7.40971016 C19.70832,7.40971016 18.7856,6.42855277 18.0856,6.42855277 C17.25456,6.42855277 16.2825067,7.42820751 16.2825067,7.42820751 L16.2825067,7.42800808 Z M2.34730667,3.26720075 L33.6287467,3.26720075 C35.0712533,3.26720075 35.9018667,2.85512362 35.9018667,1.6809157 C35.9018667,0.508652252 35.1804267,0.0291669836 33.6287467,0.0291669836 L2.34709333,0.0291669836 C0.910826667,0.0291669836 0.0741866667,0.475147614 0.0741866667,1.6482088 C0.0741866667,2.82141955 0.932693333,3.26720075 2.34709333,3.26720075 L2.34730667,3.26720075 Z" mask="url(#icon_top-b)"/>
  </g>
</svg>
