<svg xmlns="http://www.w3.org/2000/svg" xmlns:xlink="http://www.w3.org/1999/xlink" width="22" height="22" viewBox="0 0 22 22">
  <defs>
    <polygon id="icon_write-a" points=".002 .007 .002 21.973 21.974 21.973 21.974 .007 .002 .007"/>
  </defs>
  <g fill="none" fill-rule="evenodd">
    <mask id="icon_write-b" fill="#fff">
      <use xlink:href="#icon_write-a"/>
    </mask>
    <path fill="#505050" d="M21.6786659,2.28630976 C21.284839,1.89363659 20.6474293,1.89363659 20.2534683,2.28630976 L10.270378,12.2615659 C10.0157951,12.5164439 9.91644634,12.8878683 10.0099463,13.2357902 C10.1033122,13.583739 10.3752805,13.8553854 10.7233366,13.9483488 C11.0713659,14.0414195 11.4425756,13.9417488 11.6971317,13.6868707 L21.6786659,3.71161463 C21.8677317,3.5226561 21.9738951,3.26632927 21.9738951,2.99897561 C21.9738951,2.73172927 21.8677317,2.47537561 21.6786659,2.28630976 Z M17.9805463,12.9867878 C17.4292854,12.9867878 16.9823098,13.4337634 16.9823098,13.9851317 L16.9823098,18.9782195 C16.9823098,19.529561 16.5353073,19.9765634 15.9839659,19.9765634 L2.99334146,19.9765634 C2.442,19.9765634 1.99499756,19.529561 1.99499756,18.9782195 L1.99499756,3.00211463 C1.99499756,2.45074634 2.442,2.00377073 2.99334146,2.00377073 L12.9859024,2.00377073 C13.5371366,2.00377073 13.9840317,1.55679512 13.9840317,1.00553415 C13.9840317,0.454165854 13.5371366,0.00729756098 12.9859024,0.0071902439 L1.99816341,0.0071902439 C0.895212195,0.0071902439 0.000831707317,0.900846341 0,2.00377073 L0,19.9765634 C0,20.5063341 0.210556098,21.0144 0.585307317,21.3889634 C0.960085366,21.7634195 1.46836585,21.9735463 1.99816341,21.9731171 L16.9854488,21.9731171 C17.5152195,21.9735463 18.0235,21.7634195 18.398278,21.3889634 C18.7730561,21.0144 18.9835854,20.5063341 18.9835854,19.9765634 L18.9835854,13.9804098 C18.9801244,13.4293634 18.5315927,12.9850171 17.9805463,12.9867878 Z" mask="url(#icon_write-b)"/>
  </g>
</svg>
