<svg xmlns="http://www.w3.org/2000/svg" width="26" height="27" viewBox="0 0 26 27">
  <g fill="#909090" fill-rule="evenodd">
    <path d="M10.4625177,20.6431534 C4.70919943,20.6431534 0.0290891089,16.0177954 0.0290891089,10.3326783 C0.0290891089,4.6475249 4.70919943,0.0228936743 10.4625177,0.0228936743 C16.2158727,0.0228936743 20.895983,4.64825168 20.895983,10.3334051 C20.895983,16.0185585 16.2158727,20.6431534 10.4625177,20.6431534 L10.4625177,20.6431534 Z M10.4625177,1.13923284 C5.33205941,1.13923284 1.15882037,5.26372813 1.15882037,10.3334051 C1.15882037,15.4030821 5.33205941,19.5275774 10.4625177,19.5275774 C15.5930127,19.5275774 19.7669873,15.4030821 19.7669873,10.3334051 C19.7669873,5.26372813 15.5930127,1.13923284 10.4625177,1.13923284 L10.4625177,1.13923284 Z"/>
    <path d="M25.4134003,26.9698385 C25.2688006,26.9698385 25.1242008,26.9155114 25.0142433,26.8060942 L16.338628,18.233358 C16.1179774,18.015323 16.1179774,17.6618156 16.338628,17.4437443 C16.5593154,17.2256729 16.9170636,17.2256729 17.1377511,17.4437443 L25.8133296,26.0164805 C26.0339802,26.2345518 26.0339802,26.5880592 25.8133296,26.8060942 C25.7018642,26.9155114 25.558,26.9698385 25.4134003,26.9698385"/>
  </g>
</svg>
