<svg xmlns="http://www.w3.org/2000/svg" xmlns:xlink="http://www.w3.org/1999/xlink" width="46" height="20" viewBox="0 0 46 20">
  <defs>
    <polygon id="icon_pulldown-a" points=".002 .024 .002 11.79 19.979 11.79 19.979 .024 .002 .024"/>
  </defs>
  <g fill="none" fill-rule="evenodd">
    <rect width="20" height="46" x="13" y="-13" fill="#2489E8" fill-opacity=".2" transform="rotate(90 23 10)"/>
    <g transform="rotate(-180 16.5 8)">
      <mask id="icon_pulldown-b" fill="#fff">
        <use xlink:href="#icon_pulldown-a"/>
      </mask>
      <path fill="#2489E8" d="M19.9998859,10.7325511 C19.9998859,11.0244492 19.8965316,11.3160286 19.690628,11.5383278 C19.2779889,11.9838245 18.6107884,11.9838245 18.1981493,11.5383278 L10.0591349,2.75119191 L1.80195135,11.6658775 C1.38931225,12.1113742 0.722004373,12.1113742 0.309472624,11.6658775 C-0.103166478,11.2203808 -0.103166478,10.5000815 0.309472624,10.0545848 L9.31300287,0.33412251 C9.72564197,-0.11137417 10.3928157,-0.11137417 10.8054548,0.33412251 L19.690628,9.92689025 C19.8964242,10.1491895 19.9999933,10.4407689 19.9999933,10.732667 L19.9998859,10.7325511 Z" mask="url(#icon_pulldown-b)"/>
    </g>
  </g>
</svg>
