<svg xmlns="http://www.w3.org/2000/svg" xmlns:xlink="http://www.w3.org/1999/xlink" width="44" height="44" viewBox="0 0 44 44">
  <defs>
    <polygon id="my-selected-a" points=".003 .015 .003 38.944 39.9 38.944 39.9 .015 .003 .015"/>
  </defs>
  <g fill="none" fill-rule="evenodd" transform="translate(2 3)">
    <mask id="my-selected-b" fill="#fff">
      <use xlink:href="#my-selected-a"/>
    </mask>
    <path fill="#2489E8" d="M39.8999538,33.9594308 C39.8999538,36.7120742 37.583778,38.9444208 34.7271057,38.9444208 L5.06630737,38.9444208 L5.06825561,38.9340171 C2.26090145,38.8798845 0,36.67797 0,33.9594308 C0,32.971913 0.306819529,32.0585563 0.819929547,31.2846205 L0.731479577,31.2505164 C4.22283199,26.5324066 11.505454,23.7524465 19.9498377,23.7524465 C28.1759632,23.7524465 35.3105192,26.3624979 38.9014544,30.8830485 L38.821688,30.9447475 C39.4885417,31.7842767 39.8999538,32.8211427 39.8999538,33.9594308 Z M19.9498377,20.9037775 C14.7031236,20.9037775 10.4500104,16.2276163 10.4500104,10.4593994 C10.4500104,4.6911826 14.7031236,0.0148544936 19.9498377,0.0148544936 C25.1968302,0.0148544936 29.4498877,4.6911826 29.4498877,10.4593994 C29.4498877,16.2276163 25.1968302,20.9037775 19.9498377,20.9037775 Z" mask="url(#my-selected-b)"/>
  </g>
</svg>
