<svg xmlns="http://www.w3.org/2000/svg" xmlns:xlink="http://www.w3.org/1999/xlink" width="44" height="44" viewBox="0 0 44 44">
  <defs>
    <polygon id="optional-a" points=".003 .043 .003 44 43.957 44 43.957 .043 .003 .043"/>
  </defs>
  <g fill="none" fill-rule="evenodd">
    <mask id="optional-b" fill="#fff">
      <use xlink:href="#optional-a"/>
    </mask>
    <path fill="#909090" d="M21.9786439,0.0429268293 C9.82579024,0.0429268293 0,9.86871707 0,22.0215707 C0,34.1743707 9.82579024,43.9999463 21.9786439,43.9999463 C34.1314439,43.9999463 43.9570195,34.1743707 43.9570195,22.0215707 C43.9570195,9.86871707 34.1314439,0.0429268293 21.9786439,0.0429268293 Z M30.2527366,23.4177122 L23.3747854,23.4177122 L23.3747854,30.2956634 C23.3747854,31.0714049 22.7541707,31.6920195 21.9786439,31.6920195 C21.2029024,31.6920195 20.5822341,31.0714049 20.5822341,30.2956634 L20.5822341,23.4177122 L13.7560634,23.4177122 C12.980322,23.4177122 12.3597073,22.7970976 12.3597073,22.0215707 C12.3597073,21.2458293 12.980322,20.625161 13.7560634,20.625161 L20.6340146,20.625161 L20.6340146,13.7989902 C20.6340146,13.0232488 21.2544146,12.4026341 22.0301561,12.4026341 C22.8059512,12.4026341 23.4265659,13.0232488 23.4265659,13.7989902 L23.4265659,20.6769415 L30.3045171,20.6769415 C31.0802585,20.6769415 31.7008732,21.2973415 31.7008732,22.0730829 C31.5973122,22.7970976 30.9769122,23.4177122 30.2527366,23.4177122 Z" mask="url(#optional-b)"/>
  </g>
</svg>
