<svg xmlns="http://www.w3.org/2000/svg" xmlns:xlink="http://www.w3.org/1999/xlink" width="44" height="44" viewBox="0 0 44 44">
  <defs>
    <polygon id="quotation-a" points=".003 .038 .003 38 43.981 38 43.981 .038 .003 .038"/>
  </defs>
  <g fill="none" fill-rule="evenodd" transform="translate(0 3)">
    <mask id="quotation-b" fill="#fff">
      <use xlink:href="#quotation-a"/>
    </mask>
    <path fill="#909090" d="M43.8355543,1.0286878 C43.8355543,1.0286878 43.86586,0.0377682927 42.2581076,0.0377682927 L32.9052484,0.0377682927 C32.9052484,0.0377682927 32.028803,0.0649243902 32.9756726,1.10454878 C33.9227248,2.14417317 36.6472684,4.73799756 36.6472684,4.73799756 L36.6114402,5.31439268 L24.2115376,16.0121805 C24.2115376,16.0121805 23.2243669,16.7933122 21.9897303,15.7258366 C20.7549112,14.658361 15.2337567,9.91864878 15.2337567,9.91864878 C15.2337567,9.91864878 14.2170106,9.17194878 13.2763938,9.9552122 L4.39153808,17.3532098 L0.000730290456,21.0045927 L0.000730290456,25.0140098 C0.000730290456,25.0140098 0.353353192,25.8479707 1.04992719,25.2696293 C1.74668376,24.6911024 14.2924096,14.2437902 14.2924096,14.2437902 L22.3951599,21.2093293 C22.3951599,21.2093293 23.1002688,22.1924634 24.028243,21.3883463 C24.9562172,20.5842756 39.3734551,8.06156098 39.3734551,8.06156098 L42.8730298,11.5331854 C42.8730298,11.5331854 43.5118222,12.045861 43.8355543,11.0256073 C44.1591495,10.0053537 43.8355543,1.0286878 43.8355543,1.0286878 Z" mask="url(#quotation-b)"/>
    <path fill="#909090" d="M38.4197593,15.000639 C37.8914855,15.4609951 24.2944813,27.2757049 24.2944813,27.2757049 C24.2944813,27.2757049 23.7465809,28.3831732 22.3410913,27.352261 C20.9357842,26.3213488 14.8529212,20.9165902 14.8529212,20.9165902 C14.8529212,20.9165902 13.9552116,20.6494317 13.5075436,21.023222 L0.818746888,31.5878244 C0.818746888,31.5878244 0,32.3289171 0,33.0727439 L0,36.483522 C0,36.5603098 0.5543361,37.9999537 1.57610373,37.9999537 L38.5431328,37.9999537 C38.5431328,37.9999537 39.495751,37.7465122 39.495751,36.483522 L39.495751,15.1967098 C39.495751,15.1967098 38.9536017,14.540839 38.4219046,15.000639 L38.4197593,15.000639 Z" mask="url(#quotation-b)"/>
  </g>
</svg>
