<svg xmlns="http://www.w3.org/2000/svg" xmlns:xlink="http://www.w3.org/1999/xlink" width="44" height="44" viewBox="0 0 44 44">
  <defs>
    <polygon id="strategy-selected-a" points=".004 .015 .004 39 41.969 39 41.969 .015 .004 .015"/>
  </defs>
  <g fill="none" fill-rule="evenodd" transform="translate(1 3)">
    <mask id="strategy-selected-b" fill="#fff">
      <use xlink:href="#strategy-selected-a"/>
    </mask>
    <path fill="#2489E8" d="M16.3065587,24.256082 L22.338838,9.82085097 L25.6136648,11.2169463 L19.5816201,25.6521192 L16.3065587,24.256082 Z M26.6345112,22.8504545 L31.6844832,17.7366304 L26.6345112,12.6227481 L29.1545698,10.0708346 L36.7250112,17.7366304 L29.1545698,25.4023681 L26.6345112,22.8504545 Z M12.8140475,25.4023681 L5.24360615,17.7366304 L12.8140475,10.0708346 L15.3343408,12.6227481 L10.2841341,17.7366304 L15.3343408,22.8504545 L12.8140475,25.4023681 Z M38.6066816,0.0145305514 L3.36187709,0.0145305514 C1.50449162,0.0145305514 0,1.53797168 0,3.41880626 L0,32.0542221 C0,33.935231 1.50431564,35.4586721 3.36187709,35.4586721 L12.620648,35.4586721 L12.620648,39 L29.3046201,39 L29.3046201,35.4586721 L38.6069162,35.4586721 C40.4643017,35.4586721 41.968852,33.935231 41.968852,32.0542221 L41.968852,3.41880626 C41.9686173,1.53797168 40.4643017,0.0145305514 38.6066816,0.0145305514 Z" mask="url(#strategy-selected-b)"/>
  </g>
</svg>
